<?xml version="1.0" encoding="utf-8"?>
<!-- Generator: Adobe Illustrator 22.0.1, SVG Export Plug-In . SVG Version: 6.00 Build 0)  -->
<svg version="1.1" id="Capa_1" xmlns="http://www.w3.org/2000/svg" xmlns:xlink="http://www.w3.org/1999/xlink" x="0px" y="0px"
	 viewBox="0 0 310.4 310.4" style="enable-background:new 0 0 310.4 310.4;" xml:space="preserve">
<g>
	<g>
		<path d="M188.8,233.9c0,0,3.5-2.1,6.4,0.9c16,16,64.1,64.1,64.1,64.1c12.8,12.8,30.7,15.8,42,4.5l2-2c11.3-11.3,8.3-29.2-4.5-42
			c0,0-48.2-48.2-64.3-64.3c-2.8-2.8-0.7-6.3-0.7-6.3c29-48.4,22.7-110.4-18.9-152c-49.1-49.1-129-49.1-178.1,0s-49.1,129,0,178.1
			C78.5,256.6,140.5,262.9,188.8,233.9z M60.1,191.7c-36.3-36.3-36.3-95.3,0-131.6c36.3-36.3,95.3-36.3,131.6,0
			c36.3,36.3,36.3,95.3,0,131.6C155.4,228,96.4,228,60.1,191.7z"/>
		<path d="M66.1,117.8v16.6c0,5.5,4.5,10,10,10h27.8c0,0,3.1,0.1,3.1,2.8c0,7,0,28,0,28c0,5.5,4.5,10,10,10h16.6c5.5,0,10-4.5,10-10
			c0,0,0-20.9,0-27.9c0-2.9,3.1-3,3.1-3h27.8c5.5,0,10-4.5,10-10v-16.6c0-5.5-4.5-10-10-10h-28c0,0-2.9-0.2-2.9-3.1
			c0-6.9,0-27.7,0-27.7c0-5.5-4.5-10-10-10h-16.6c-5.5,0-10,4.5-10,10c0,0,0,20.9,0,27.9c0,2.8-2.7,3-2.7,3H76.1
			C70.6,107.8,66.1,112.3,66.1,117.8z"/>
	</g>
</g>
</svg>
