<?xml version="1.0" encoding="iso-8859-1"?>
<!-- Generator: Adobe Illustrator 18.0.0, SVG Export Plug-In . SVG Version: 6.00 Build 0)  -->
<!DOCTYPE svg PUBLIC "-//W3C//DTD SVG 1.1//EN" "http://www.w3.org/Graphics/SVG/1.1/DTD/svg11.dtd">
<svg version="1.1" id="Capa_1" xmlns="http://www.w3.org/2000/svg" xmlns:xlink="http://www.w3.org/1999/xlink" x="0px" y="0px"
	 viewBox="0 0 300 300" style="enable-background:new 0 0 300 300;" xml:space="preserve">
<g>
	<path d="M150,0C67.29,0,0,67.29,0,150s67.29,150,150,150s150-67.29,150-150S232.71,0,150,0z M150,270c-66.169,0-120-53.832-120-120
		S83.831,30,150,30s120,53.832,120,120S216.169,270,150,270z"/>
	<path d="M215.606,84.394c-5.857-5.857-15.355-5.857-21.213,0L150,128.787l-44.394-44.393c-5.857-5.857-15.355-5.857-21.213,0
		c-5.858,5.857-5.858,15.355,0,21.213L128.787,150l-44.393,44.394c-5.858,5.857-5.858,15.355,0,21.213
		C87.322,218.535,91.161,220,95,220s7.678-1.465,10.606-4.394L150,171.213l44.394,44.393C197.322,218.535,201.161,220,205,220
		s7.678-1.465,10.606-4.394c5.858-5.857,5.858-15.355,0-21.213L171.213,150l44.393-44.394
		C221.464,99.749,221.464,90.251,215.606,84.394z"/>
</g>
<g>
</g>
<g>
</g>
<g>
</g>
<g>
</g>
<g>
</g>
<g>
</g>
<g>
</g>
<g>
</g>
<g>
</g>
<g>
</g>
<g>
</g>
<g>
</g>
<g>
</g>
<g>
</g>
<g>
</g>
</svg>
