<?xml version="1.0" encoding="iso-8859-1"?>
<!-- Generator: Adobe Illustrator 19.0.0, SVG Export Plug-In . SVG Version: 6.00 Build 0)  -->
<svg version="1.1" id="Capa_1" xmlns="http://www.w3.org/2000/svg" xmlns:xlink="http://www.w3.org/1999/xlink" x="0px" y="0px"
	 viewBox="0 0 448 448" style="enable-background:new 0 0 448 448;" xml:space="preserve">
<path d="M448,249c0-57.346-46.654-104-104-104c-20.33,0-40.22,6.023-57.089,17.095c-4.38-19.182-10.203-37.662-17.235-54.198
	C250.781,63.469,226.036,39,200,39c-26.065,0-50.81,24.368-69.673,68.615c-6.645,15.587-12.212,32.94-16.501,51.01l-26.108-95.73
	C86.768,59.415,83.607,57,80,57s-6.769,2.415-7.718,5.896l-72,264c-0.656,2.405-0.153,4.979,1.36,6.96
	C3.156,335.838,5.507,337,8,337h64v64c0,4.418,3.582,8,8,8s8-3.582,8-8v-64h64c2.493,0,4.844-1.162,6.357-3.145
	c1.232-1.613,1.781-3.618,1.594-5.606c9.898,4.555,20.696,7.475,32.049,8.415V401c0,4.418,3.582,8,8,8s8-3.582,8-8v-64.335
	c20.768-1.719,39.684-10.067,54.62-22.92c18.014,22.626,44.584,36.72,73.38,38.936V401c0,4.418,3.582,8,8,8s8-3.582,8-8v-48.305
	C405.622,348.597,448,303.654,448,249z M141.526,321H88v-12.686l14.157-14.157c3.124-3.125,3.124-8.189,0-11.314
	c-3.125-3.123-8.189-3.123-11.314,0L88,285.685V233c0-4.418-3.582-8-8-8s-8,3.582-8,8v36.686l-10.343-10.343
	c-3.125-3.123-8.189-3.123-11.314,0c-3.124,3.125-3.124,8.189,0,11.314L72,292.314v12.68c0,0.003,0,0.007,0,0.01V321H18.474
	L80,95.404l27.105,99.383c-2.109,15.543-3.23,31.11-3.23,46.087c0,30.408,14.196,57.559,36.304,75.186L141.526,321z M208,308.314
	l29.657-29.657c3.124-3.125,3.124-8.189,0-11.314c-3.125-3.123-8.189-3.123-11.314,0L208,285.685v-33.371l21.657-21.657
	c3.124-3.125,3.124-8.189,0-11.314c-3.125-3.123-8.189-3.123-11.314,0L208,229.685V209c0-4.418-3.582-8-8-8s-8,3.582-8,8v39.995
	c0,0.003,0,0.007,0,0.01v20.68l-18.343-18.343c-3.125-3.123-8.189-3.123-11.314,0c-3.124,3.125-3.124,8.189,0,11.314L192,292.314
	v12.68c0,0.003,0,0.007,0,0.01v15.594c-40.438-4.028-72.125-38.244-72.125-79.724c0-42.544,9.409-90.016,25.17-126.984
	C161.001,76.465,181.031,55,200,55c18.934,0,38.963,21.563,54.952,59.159c15.763,37.064,25.173,84.435,25.173,126.716
	c0,41.481-31.687,75.697-72.125,79.724V308.314z M352,336.633v-12.318l29.657-29.657c3.124-3.125,3.124-8.189,0-11.314
	c-3.125-3.123-8.189-3.123-11.314,0L352,301.685V249c0-4.418-3.582-8-8-8s-8,3.582-8,8v36.686l-18.343-18.343
	c-3.125-3.123-8.189-3.123-11.314,0c-3.124,3.125-3.124,8.189,0,11.314L336,308.314v12.68c0,0.003,0,0.007,0,0.01v15.63
	c-24.538-2.234-47.064-14.677-62.066-34.398c13.85-16.659,22.191-38.054,22.191-61.362c0-19.952-2.01-40.994-5.723-61.656
	C305.707,167.458,324.618,161,344,161c48.523,0,88,39.477,88,88C432,294.826,396.788,332.577,352,336.633z"/>
<g>
</g>
<g>
</g>
<g>
</g>
<g>
</g>
<g>
</g>
<g>
</g>
<g>
</g>
<g>
</g>
<g>
</g>
<g>
</g>
<g>
</g>
<g>
</g>
<g>
</g>
<g>
</g>
<g>
</g>
</svg>
