<?xml version="1.0" encoding="iso-8859-1"?>
<!-- Generator: Adobe Illustrator 19.0.0, SVG Export Plug-In . SVG Version: 6.00 Build 0)  -->
<svg version="1.1" id="Capa_1" xmlns="http://www.w3.org/2000/svg" xmlns:xlink="http://www.w3.org/1999/xlink" x="0px" y="0px"
	 viewBox="0 0 512.001 512.001" style="enable-background:new 0 0 512.001 512.001;" xml:space="preserve">
<g>
	<g>
		<path d="M510.035,443.6L374.04,203.607c-2.664-4.701-7.649-7.605-13.051-7.605c-0.008,0-0.017,0-0.023,0
			c-5.411,0.009-10.397,2.93-13.05,7.646l-10.481,18.632l-23.456-40.21c-0.019-0.033-0.037-0.065-0.057-0.098L238.95,53.449
			c-2.731-4.683-7.763-7.536-13.198-7.44c-5.42,0.087-10.372,3.092-12.952,7.86L1.807,443.857
			c-2.515,4.648-2.398,10.277,0.308,14.817c2.706,4.54,7.6,7.321,12.885,7.321c7.609,0,480.348,0,481.985,0
			C508.463,465.994,515.692,453.584,510.035,443.6z M361.038,241.512l22.261,39.286l-22.309,26.771l-22.154-26.585L361.038,241.512z
			 M226.486,91.62l56.674,97.156l-18.682,25.501l-25.764-41.223c-2.741-4.386-7.548-7.05-12.72-7.05s-9.979,2.664-12.72,7.05
			l-25.764,41.223l-15.752-21.501L226.486,91.62z M40.17,435.995l115.791-214.022l20.433,27.893c2.941,4.015,7.681,6.3,12.653,6.125
			c4.973-0.183,9.531-2.82,12.168-7.04l24.779-39.647l24.779,39.647c2.637,4.219,7.195,6.856,12.168,7.04
			c0.185,0.007,0.369,0.01,0.554,0.01c4.769,0,9.268-2.271,12.099-6.135l24.052-32.831l20.741,35.557L217.221,435.995H40.17z
			 M251.641,435.995l71.457-127.036l26.368,31.642c2.85,3.419,7.071,5.397,11.523,5.397s8.674-1.978,11.523-5.397l26.593-31.911
			l72.14,127.305H251.641z"/>
	</g>
</g>
<g>
</g>
<g>
</g>
<g>
</g>
<g>
</g>
<g>
</g>
<g>
</g>
<g>
</g>
<g>
</g>
<g>
</g>
<g>
</g>
<g>
</g>
<g>
</g>
<g>
</g>
<g>
</g>
<g>
</g>
</svg>
