<?xml version="1.0" encoding="iso-8859-1"?>
<!-- Generator: Adobe Illustrator 19.0.0, SVG Export Plug-In . SVG Version: 6.00 Build 0)  -->
<svg version="1.1" id="Capa_1" xmlns="http://www.w3.org/2000/svg" xmlns:xlink="http://www.w3.org/1999/xlink" x="0px" y="0px"
	 viewBox="0 0 512 512" style="enable-background:new 0 0 512 512;" xml:space="preserve">
<g>
	<g>
		<polygon points="371.2,0 371.2,102.4 473.6,102.4 		"/>
	</g>
</g>
<g>
	<g>
		<path d="M320,153.6V0H64C48.64,0,38.4,10.24,38.4,25.6v460.8c0,15.36,10.24,25.6,25.6,25.6h384c12.8,0,25.6-10.24,25.6-25.6V153.6
			H320z M89.6,64c0-7.68,5.12-12.8,12.8-12.8H256c7.68,0,12.8,5.12,12.8,12.8v102.4c0,7.68-5.12,12.8-12.8,12.8H102.4
			c-7.68,0-12.8-5.12-12.8-12.8V64z M320,384H115.2c-15.36,0-25.6-10.24-25.6-25.6c0-15.36,10.24-25.6,25.6-25.6H320
			c15.36,0,25.6,10.24,25.6,25.6C345.6,373.76,332.8,384,320,384z M396.8,281.6H115.2c-15.36,0-25.6-10.24-25.6-25.6
			s10.24-25.6,25.6-25.6h281.6c15.36,0,25.6,10.24,25.6,25.6S409.6,281.6,396.8,281.6z"/>
	</g>
</g>
<g>
</g>
<g>
</g>
<g>
</g>
<g>
</g>
<g>
</g>
<g>
</g>
<g>
</g>
<g>
</g>
<g>
</g>
<g>
</g>
<g>
</g>
<g>
</g>
<g>
</g>
<g>
</g>
<g>
</g>
</svg>
