<?xml version="1.0" encoding="utf-8"?>
<!-- Generator: Adobe Illustrator 21.0.2, SVG Export Plug-In . SVG Version: 6.00 Build 0)  -->
<svg version="1.1" id="Capa_1" xmlns="http://www.w3.org/2000/svg" xmlns:xlink="http://www.w3.org/1999/xlink" x="0px" y="0px"
	 viewBox="0 0 58 58" style="enable-background:new 0 0 58 58;" xml:space="preserve">
<style type="text/css">
	.st0{fill:#3A3A39;}
</style>
<g>
	<path class="st0" d="M57,6H1C0.4,6,0,6.4,0,7v44c0,0.6,0.4,1,1,1h56c0.6,0,1-0.4,1-1V7C58,6.4,57.6,6,57,6z M56,50H2V8h54V50z"/>
	<path class="st0" d="M16,28.1c3.1,0,5.6-2.5,5.6-5.6s-2.5-5.6-5.6-5.6s-5.6,2.5-5.6,5.6S12.9,28.1,16,28.1z M16,19
		c2,0,3.6,1.6,3.6,3.6S18,26.1,16,26.1s-3.6-1.6-3.6-3.6S14,19,16,19z"/>
	<path class="st0" d="M7,46c0.2,0,0.5-0.1,0.7-0.2L24,31.4l10.3,10.3c0.4,0.4,1,0.4,1.4,0s0.4-1,0-1.4l-4.8-4.8l9.2-10.1l11.3,10.3
		c0.4,0.4,1,0.3,1.4-0.1c0.4-0.4,0.3-1-0.1-1.4l-12-11C40.5,23.1,40.2,23,40,23c-0.3,0-0.5,0.1-0.7,0.3L29.5,34l-4.7-4.7
		c-0.4-0.4-1-0.4-1.4,0l-17,15c-0.4,0.4-0.5,1-0.1,1.4C6.4,45.9,6.7,46,7,46z"/>
</g>
</svg>
