<?xml version="1.0" encoding="iso-8859-1"?>
<!-- Generator: Adobe Illustrator 16.0.0, SVG Export Plug-In . SVG Version: 6.00 Build 0)  -->
<!DOCTYPE svg PUBLIC "-//W3C//DTD SVG 1.1//EN" "http://www.w3.org/Graphics/SVG/1.1/DTD/svg11.dtd">
<svg version="1.1" id="Capa_1" xmlns="http://www.w3.org/2000/svg" xmlns:xlink="http://www.w3.org/1999/xlink" x="0px" y="0px"
	 width="517.079px" height="517.079px" viewBox="0 0 517.079 517.079" style="enable-background:new 0 0 517.079 517.079;"
	 xml:space="preserve">
<g>
	<path d="M6.942,243.516h0.026c0-0.161-0.026-0.296-0.016-0.459c0.247-3.53,3.335-6.164,6.859-5.956c0.007,0,0.049,0,0.061,0
		c0,0,0.03,0,0.042,0c1.814,0.117,36.7,1.961,53.23-13.475c5.647-5.272,8.399-11.918,8.399-20.307c0-3.554,2.874-6.427,6.421-6.427
		c0,0,0,0,0.011,0c3.546,0,6.427,2.878,6.427,6.427c0,8.389,2.738,15.035,8.395,20.307c13.078,12.216,37.668,13.611,48.253,13.592
		c11.859-0.295,32.338-2.481,43.929-13.233c5.746-5.308,8.531-12.088,8.531-20.666c0-3.554,2.885-6.427,6.434-6.427
		c3.546,0,6.426,2.878,6.426,6.427c0,8.389,2.745,15.035,8.394,20.307c12.175,11.374,34.321,13.352,45.872,13.576
		c11.951-0.364,31.869-2.678,43.253-13.217c5.738-5.308,8.53-12.088,8.53-20.666c0-3.554,2.882-6.427,6.43-6.427
		c3.55,0,6.43,2.878,6.43,6.427c0,8.389,2.74,15.035,8.387,20.307c12.257,11.447,34.606,13.382,46.088,13.576
		c11.939-0.364,31.927-2.65,43.335-13.217c5.746-5.308,8.539-12.088,8.539-20.666c0-3.554,2.882-6.427,6.424-6.427
		c3.568,0,6.436,2.878,6.436,6.427c0,8.389,2.745,15.035,8.392,20.307c16.892,15.762,52.96,13.502,53.325,13.475
		c3.534-0.208,6.615,2.426,6.858,5.956c0.249,3.554-2.419,6.613-5.962,6.865c-1.699,0.117-41.957,2.706-62.972-16.876
		c-2.312-2.159-4.328-4.511-6.011-7.023c-4.796,7.352-12.26,13.185-22.235,17.274c-8.575,3.522-17.919,5.256-25.913,6.093
		c-0.653,0.279-1.343,0.493-2.076,0.531c-0.436,0.033-3.513,0.224-8.153,0.169c-1.377,0.027-2.638,0.055-3.754,0.055
		c-3.675,0-6.961-0.011-9.302-0.887c-13.471-1.515-30.424-5.636-41.761-16.213c-2.333-2.159-4.336-4.511-6.014-7.023
		c-4.801,7.352-12.265,13.185-22.234,17.274c-8.438,3.448-17.604,5.191-25.498,6.047c-0.681,0.314-1.414,0.539-2.195,0.578
		c-0.443,0.033-3.607,0.241-8.367,0.169c-1.4,0.027-2.7,0.055-3.85,0.055c-3.736,0-7.042-0.027-9.384-0.931
		c-13.415-1.562-30.146-5.699-41.38-16.169c-2.33-2.159-4.333-4.511-6.007-7.023c-4.803,7.352-12.266,13.185-22.239,17.274
		c-9.976,4.096-20.985,5.778-29.716,6.446c-0.342,0.093-0.678,0.163-1.047,0.172c-0.173,0.016-0.786,0.063-1.727,0.09
		c-1.6,0.124-3.374,0.134-5.25,0.134c-0.341,0-0.717-0.01-1.086-0.01c-0.369,0-0.738,0.01-1.081,0.01
		c-2.624,0-5.031-0.01-7.062-0.325c-8.865-0.616-20.318-2.279-30.673-6.522c-9.923-4.085-17.373-9.882-22.163-17.185
		c-4.811,7.308-12.256,13.106-22.185,17.185c-14.525,5.956-31.234,6.848-39.9,6.848c-1.877,0-3.651-0.01-5.246-0.134
		c-0.941-0.027-1.551-0.074-1.737-0.09c-1.076-0.071-2.057-0.421-2.925-0.974c-1.57-0.758-2.594-2.057-2.897-4.169
		c-0.061-0.315-0.102-0.621-0.117-0.947C6.968,243.718,6.942,243.639,6.942,243.516z M503.284,307.157
		c-0.358,0.028-36.434,2.3-53.327-13.454c-5.647-5.28-8.395-11.919-8.395-20.323c0-3.558-2.872-6.425-6.429-6.425
		c-3.544,0-6.425,2.867-6.425,6.425c0,8.591-2.796,15.356-8.536,20.667c-11.415,10.578-31.403,12.859-43.344,13.227
		c-11.485-0.202-33.822-2.145-46.079-13.582c-5.653-5.272-8.395-11.917-8.395-20.322c0-3.547-2.882-6.419-6.425-6.419
		c-3.554,0-6.435,2.872-6.435,6.419c0,8.591-2.791,15.354-8.53,20.673c-11.383,10.545-31.293,12.843-43.248,13.209
		c-11.554-0.207-33.697-2.205-45.875-13.56c-5.647-5.28-8.393-11.917-8.393-20.322c0-3.557-2.885-6.425-6.427-6.425
		c-3.553,0-6.434,2.868-6.434,6.425c0,8.585-2.785,15.349-8.528,20.667c-11.591,10.742-32.073,12.93-43.929,13.237
		c-10.59,0-35.178-1.368-48.256-13.593c-5.654-5.275-8.392-11.919-8.392-20.323c0-3.551-2.886-6.418-6.427-6.418
		c-0.012,0-0.012,0-0.012,0c-3.553,0-6.422,2.867-6.422,6.418c0,8.404-2.75,15.048-8.399,20.323
		c-16.528,15.422-51.415,13.582-53.231,13.472c-0.012,0-0.039-0.011-0.039-0.011c-0.01,0-0.055,0-0.061,0
		c-3.526-0.196-6.612,2.43-6.859,5.977c-0.01,0.142,0.016,0.295,0.016,0.437H0c0,0.115,0.033,0.208,0.033,0.329
		c0.016,0.306,0.055,0.612,0.118,0.93c0.301,2.111,1.322,3.414,2.897,4.186c0.867,0.536,1.85,0.903,2.926,0.975
		c0.177,0.017,0.796,0.05,1.736,0.093c1.59,0.121,3.365,0.121,5.245,0.121c8.668,0,25.376-0.887,39.899-6.85
		c9.929-4.067,17.376-9.874,22.183-17.184c4.791,7.31,12.245,13.122,22.167,17.184c10.356,4.244,21.809,5.919,30.674,6.522
		c2.021,0.317,4.438,0.327,7.06,0.327c0.348,0,0.713,0,1.083,0c0.369,0,0.749,0,1.085,0c1.877,0,3.642,0,5.25-0.121
		c0.941-0.043,1.546-0.076,1.726-0.093c0.364-0.027,0.707-0.104,1.048-0.169c8.73-0.668,19.736-2.37,29.714-6.467
		c9.969-4.09,17.433-9.922,22.241-17.271c1.674,2.527,3.673,4.861,6.005,7.037c11.236,10.474,27.968,14.6,41.382,16.153
		c2.342,0.921,5.647,0.931,9.385,0.931c1.142,0,2.447-0.01,3.849-0.056c4.771,0.071,7.927-0.126,8.365-0.153
		c0.786-0.061,1.52-0.268,2.192-0.579c7.898-0.849,17.067-2.594,25.5-6.062c9.965-4.09,17.428-9.922,22.232-17.271
		c1.686,2.527,3.683,4.861,6.014,7.037c11.344,10.577,28.29,14.676,41.769,16.197c2.344,0.877,5.618,0.887,9.291,0.887
		c1.127,0,2.382-0.01,3.759-0.056c4.646,0.071,7.715-0.126,8.148-0.153c0.743-0.061,1.434-0.252,2.078-0.524
		c8.003-0.849,17.342-2.595,25.918-6.116c9.969-4.09,17.434-9.922,22.238-17.271c1.678,2.527,3.686,4.861,6.006,7.037
		c21.015,19.584,61.281,16.996,62.973,16.875c3.548-0.252,6.218-3.326,5.966-6.855C509.891,309.583,506.818,306.965,503.284,307.157
		z"/>
</g>
<g>
</g>
<g>
</g>
<g>
</g>
<g>
</g>
<g>
</g>
<g>
</g>
<g>
</g>
<g>
</g>
<g>
</g>
<g>
</g>
<g>
</g>
<g>
</g>
<g>
</g>
<g>
</g>
<g>
</g>
</svg>
